Coordinates
version=1
nRows=4
nColumns=63
inDegrees=yes

Units are S.I. units (second, meters, Newtons, ...)
If the header above contains a line with 'inDegrees', this indicates whether rotational values are in degrees (yes) or radians (no).

endheader
time	pelvis_tilt	pelvis_list	pelvis_rotation	pelvis_tx	pelvis_ty	pelvis_tz	hip_flexion_r	hip_adduction_r	hip_rotation_r	knee_angle_r	knee_angle_r_beta	ankle_angle_r	subtalar_angle_r	mtp_angle_r	hip_flexion_l	hip_adduction_l	hip_rotation_l	knee_angle_l	knee_angle_l_beta	ankle_angle_l	subtalar_angle_l	mtp_angle_l	L5_S1_Flex_Ext	L5_S1_Lat_Bending	L5_S1_axial_rotation	L4_L5_Flex_Ext	L4_L5_Lat_Bending	L4_L5_axial_rotation	L3_L4_Flex_Ext	L3_L4_Lat_Bending	L3_L4_axial_rotation	L2_L3_Flex_Ext	L2_L3_Lat_Bending	L2_L3_axial_rotation	L1_L2_Flex_Ext	L1_L2_Lat_Bending	L1_L2_axial_rotation	L1_T12_Flex_Ext	L1_T12_Lat_Bending	L1_T12_axial_rotation	Abs_r3	Abs_r2	Abs_r1	Abs_t1	Abs_t2	neck_flexion	neck_bending	neck_rotation	arm_flex_r	arm_add_r	arm_rot_r	elbow_flex_r	pro_sup_r	wrist_flex_r	wrist_dev_r	arm_flex_l	arm_add_l	arm_rot_l	elbow_flex_l	pro_sup_l	wrist_flex_l	wrist_dev_l
      4.30508475	      1.56592069	     15.56526922	     96.16089779	      0.16691783	      0.70035746	      0.76731063	    -13.37439935	      1.12719307	      1.96880034	     15.37335642	      0.26831569	     34.33411571	     -2.77886798	      0.00000000	    -19.43321658	     -2.86853999	      8.49480781	      3.47761570	      0.06069584	     31.62413417	     -3.31951640	      0.00000000	      0.00590012	      0.10830014	     -3.67385163	      0.01095712	      0.14403918	     -3.90346735	      0.00969331	      0.26332095	     -3.90346735	      0.00674325	      0.26332095	     -3.21462017	      0.00547885	      0.22084564	     -2.98500445	      0.00337133	      0.16775691	     -2.75538872	      0.04214399	      1.22511282	    -20.43286060	      0.00000000	      0.00000000	      4.81577860	      8.54605984	     -5.15020296	     59.01717348	    -63.58986687	     16.62838011	     86.81506085	     77.11029158	     -0.53163622	      9.16890121	     22.44306045	    -63.54119110	    -26.84807333	     99.03552625	     75.91634587	     -9.64092310	     20.48518908
      4.32203390	      1.70445020	     15.51257799	     95.72944949	      0.16693566	      0.70091611	      0.76889011	    -13.19894843	      1.10646506	      2.16559172	     15.23550582	      0.26590974	     34.27493982	     -2.41885893	      0.00000000	    -19.30410950	     -2.83343038	      7.42022440	      3.42868561	      0.05984185	     31.70978567	     -2.54201366	      0.00000000	     -0.00542403	      0.13306578	     -3.53624170	     -0.01007297	      0.17697748	     -3.75725681	     -0.00891114	      0.32353613	     -3.75725681	     -0.00619912	      0.32353613	     -3.09421149	     -0.00503675	      0.27134773	     -2.87319638	     -0.00309929	      0.20611889	     -2.65218128	     -0.03874331	      1.50526669	    -19.66751548	      0.00000000	      0.00000000	      4.39578241	      8.02607773	     -5.91418704	     55.13434820	    -63.85153531	     15.27385249	     88.56185462	     77.34247316	     -2.34053401	      8.45306424	     22.74975658	    -59.93199493	    -23.94496056	     97.46628913	     72.17732892	     -9.81304692	     13.92781409
      4.33898305	      1.86137769	     15.50202167	     95.41433191	      0.16709549	      0.70160298	      0.77068357	    -13.07566518	      1.16563465	      2.29971574	     15.07319960	      0.26307696	     34.14251314	     -2.14286686	      0.00000000	    -19.15920946	     -2.86462492	      7.02582961	      3.45892357	      0.06036960	     31.64226646	     -2.44386280	      0.00000000	     -0.01522704	      0.15911979	     -3.54419994	     -0.02827813	      0.21162932	     -3.76571244	     -0.02501650	      0.38688385	     -3.76571244	     -0.01740298	      0.38688385	     -3.10117495	     -0.01413982	      0.32447707	     -2.87966245	     -0.00870073	      0.24647655	     -2.65814996	     -0.10876519	      1.79999485	    -19.71177681	      0.00000000	      0.00000000	      3.67346558	      7.39557644	     -5.86379380	     52.69607280	    -63.28995851	     16.28106373	     90.37274313	     77.41209076	     -3.59974035	      6.97281261	     21.82582858	    -56.49120853	    -21.97153516	     96.11698552	     72.97145262	     -9.38971334	      8.05859484
      4.35593220	      1.84349346	     15.66254209	     95.34819642	      0.16719652	      0.70238359	      0.77302729	    -13.13922469	      1.13299398	      2.28644416	     14.91727146	      0.26035550	     34.00291602	     -1.98452797	      0.00000000	    -19.09943670	     -2.81182468	      6.80004235	      3.62438702	      0.06325749	     31.51062204	     -2.28737217	      0.00000000	     -0.04816124	      0.15842735	     -3.60069832	     -0.08944025	      0.21070837	     -3.82574196	     -0.07912411	      0.38520025	     -3.82574196	     -0.05504349	      0.38520025	     -3.15061103	     -0.04472253	      0.32306504	     -2.92556738	     -0.02751934	      0.24540396	     -2.70052374	     -0.34401095	      1.79216182	    -20.02600383	      0.00000000	      0.00000000	      2.95131425	      7.02982098	     -5.85097642	     50.49003721	    -62.47150005	     18.42427008	     92.69761832	     76.69942261	     -5.20614968	      5.66891823	     21.64598248	    -53.25541514	    -18.70223496	     94.68559748	     75.11030364	     -9.35455419	      3.79224603
